<svg width="800" height="306" fill="none" xmlns="http://www.w3.org/2000/svg"><path opacity=".05" fill-rule="evenodd" clip-rule="evenodd" d="M400-229C70.6-229 0-158.4 0 171s70.6 400 400 400 400-70.6 400-400-70.6-400-400-400ZM339.306 81.262v160.476h75.05c30.946 0 54.338-19.938 54.338-47.657 0-10.948-3.507-20.02-9.863-27.011-4.371-4.807-10.089-8.631-16.94-11.405 4.696-5.208 7.654-11.282 8.963-18.223.524-2.783.783-5.705.783-8.766 0-27.962-23.392-47.414-54.338-47.414h-57.993Zm138.83 77.48a58.43 58.43 0 0 0-9.219-10.132c2.055-6.333 3.026-13.027 3.026-19.934 0-41.871-35.416-67.676-74.644-67.676H319v201h95.356C453.803 262 489 235.519 489 194.081c0-13.039-3.584-25.141-10.864-35.339Zm-83.517-14.019c1.875 0 3.612-.197 5.198-.573 6.864-1.629 10.884-6.617 10.884-13.529 0-6.914-4.02-11.901-10.884-13.529-1.586-.377-3.323-.574-5.198-.574h-15.108v28.205h15.108Zm18.187 41.421a.431.431 0 0 1-.089.018.59.59 0 0 1 .089-.018Zm-.089 12.453c.062.01.09.017.089.018a.463.463 0 0 1-.089-.018Zm15.041-6.217c0 9.482-6.092 14.102-16.083 14.102h-32.164v-28.205h32.164c9.991 0 16.083 4.62 16.083 14.103Z" fill="#fff"/></svg>