<svg width="210" height="59" fill="none" xmlns="http://www.w3.org/2000/svg"><path fill-rule="evenodd" clip-rule="evenodd" d="M29.12 0C5.14 0 0 5.14 0 29.12s5.14 29.12 29.12 29.12 29.12-5.14 29.12-29.12S53.1 0 29.12 0Zm-7.688 18.515v19.792h9.256c3.817 0 6.702-2.46 6.702-5.878 0-1.35-.433-2.47-1.217-3.331-.539-.593-1.244-1.065-2.089-1.407a4.543 4.543 0 0 0 1.105-2.247c.065-.344.097-.704.097-1.082 0-3.448-2.885-5.847-6.702-5.847h-7.152Zm17.122 9.555a7.209 7.209 0 0 0-1.137-1.249 7.941 7.941 0 0 0 .373-2.459c0-5.163-4.367-8.346-9.206-8.346h-9.656v24.79h11.76c4.865 0 9.206-3.267 9.206-8.377 0-1.608-.442-3.1-1.34-4.359Zm-10.3-1.728c.231 0 .445-.025.641-.071.847-.201 1.342-.816 1.342-1.669 0-.852-.495-1.467-1.342-1.668a2.779 2.779 0 0 0-.641-.07H26.39v3.478h1.863Zm2.241 5.109h.002-.006l-.005.001a.13.13 0 0 0 .01-.001Zm-.009 1.535a.076.076 0 0 1 0 0Zm1.855-.767c0 1.17-.751 1.74-1.983 1.74H26.39v-3.48h3.967c1.232 0 1.983.57 1.983 1.74Z" fill="#000"/><path d="M75.034 39h6.152a8.64 8.64 0 0 0 2.441-.33c.757-.227 1.408-.561 1.954-1a4.525 4.525 0 0 0 1.281-1.612c.31-.643.46-1.387.452-2.234 0-.48-.07-.936-.208-1.367a3.902 3.902 0 0 0-.585-1.196 4.103 4.103 0 0 0-.94-.891 4.067 4.067 0 0 0-1.355-.61v-.025c.358-.147.671-.31.94-.488.276-.188.524-.403.744-.647.31-.334.545-.716.708-1.148.171-.44.26-.911.269-1.416 0-.83-.159-1.546-.476-2.148a4.05 4.05 0 0 0-1.294-1.502c-.554-.39-1.209-.68-1.966-.866a9.694 9.694 0 0 0-2.429-.293h-5.688V39Zm2.954-8.032h3.369c.48.008.907.081 1.282.22.374.13.691.317.952.561.26.244.456.541.586.891.13.342.195.737.195 1.184 0 .423-.081.81-.244 1.16-.155.342-.379.63-.671.867a2.968 2.968 0 0 1-.977.537 3.92 3.92 0 0 1-1.27.195h-3.222v-5.615Zm0-2.234v-5.078h2.77c.505.008.965.069 1.38.183.415.106.761.28 1.038.525.244.195.431.447.561.757.139.3.208.659.208 1.074 0 .39-.073.736-.22 1.037a2.312 2.312 0 0 1-.598.77 2.795 2.795 0 0 1-1.025.537 4.774 4.774 0 0 1-1.319.195h-2.795Zm11.62 3.54v.256c0 .969.14 1.86.416 2.674.277.813.68 1.521 1.208 2.124a5.45 5.45 0 0 0 1.93 1.416c.764.341 1.63.512 2.6.512.96 0 1.818-.17 2.575-.512a5.454 5.454 0 0 0 1.929-1.416c.52-.603.919-1.31 1.196-2.124.277-.814.415-1.705.415-2.674v-.256c0-.96-.138-1.847-.415-2.661a6.313 6.313 0 0 0-1.196-2.136 5.574 5.574 0 0 0-1.941-1.416c-.757-.342-1.62-.513-2.588-.513-.969 0-1.831.17-2.588.513a5.477 5.477 0 0 0-1.917 1.416 6.187 6.187 0 0 0-1.208 2.136c-.277.814-.415 1.7-.415 2.66Zm2.918.256v-.256c0-.578.061-1.131.184-1.66.13-.53.325-.993.585-1.392a3.102 3.102 0 0 1 1.001-.952c.407-.236.887-.354 1.44-.354.562 0 1.042.118 1.441.354.407.236.74.553 1.001.952.26.399.456.863.586 1.392.13.529.196 1.082.196 1.66v.256c0 .594-.066 1.156-.196 1.685a4.283 4.283 0 0 1-.574 1.391c-.26.4-.594.717-1 .953-.407.227-.883.341-1.429.341-.561 0-1.045-.114-1.452-.341a3.06 3.06 0 0 1-1.014-.953 4.482 4.482 0 0 1-.585-1.391 7.473 7.473 0 0 1-.184-1.685Zm24.244 0v-.256c0-.749-.07-1.457-.208-2.124a7.575 7.575 0 0 0-.586-1.819 5.981 5.981 0 0 0-.684-1.074 3.861 3.861 0 0 0-.866-.842 4.367 4.367 0 0 0-1.294-.635 5 5 0 0 0-1.563-.232c-.431 0-.834.045-1.208.134a3.774 3.774 0 0 0-1.013.379 4.143 4.143 0 0 0-1.221 1.025V20.25h-2.918V39h2.637l.134-1.44c.147.179.298.345.452.5.163.146.334.285.513.415.35.252.744.444 1.184.574.439.13.928.195 1.465.195.529 0 1.017-.069 1.465-.207a4.391 4.391 0 0 0 2.404-1.697c.326-.456.586-.965.782-1.526.171-.472.301-.985.39-1.538.09-.554.135-1.135.135-1.746Zm-2.918-.256v.256c0 .367-.02.72-.061 1.062-.041.342-.102.66-.183.952a3.99 3.99 0 0 1-.427 1.062c-.179.31-.411.566-.696.77a2.841 2.841 0 0 1-.72.354c-.269.08-.57.122-.904.122-.366 0-.7-.045-1.001-.135a2.93 2.93 0 0 1-.781-.39 3.385 3.385 0 0 1-.549-.525 3.657 3.657 0 0 1-.403-.672v-5.468c.098-.212.212-.407.342-.586.138-.188.293-.35.464-.489a2.43 2.43 0 0 1 .83-.463c.317-.114.675-.171 1.074-.171.325 0 .618.036.879.11.26.073.492.183.696.33.309.21.553.471.732.78.187.301.338.64.452 1.014.081.309.142.642.183 1 .049.35.073.713.073 1.087ZM128.83 39h2.649V25.792h-2.93v9.35a3.306 3.306 0 0 1-.415.672 2.8 2.8 0 0 1-.561.513 3.354 3.354 0 0 1-.879.39 4.39 4.39 0 0 1-1.135.135c-.407 0-.761-.053-1.062-.16a1.585 1.585 0 0 1-.745-.536c-.195-.244-.338-.57-.427-.977-.09-.415-.135-.928-.135-1.538v-7.849h-2.917v7.825c0 .992.11 1.847.33 2.563.219.708.529 1.29.927 1.746a3.76 3.76 0 0 0 1.453 1.013c.57.212 1.2.317 1.892.317a4.26 4.26 0 0 0 2.148-.549 5.02 5.02 0 0 0 1.636-1.55L128.83 39Zm15.491-13.452a5.04 5.04 0 0 0-2.503.635 6.053 6.053 0 0 0-1.928 1.745l-.013-.305-.122-1.831h-2.734V39h2.917v-8.154c.155-.39.346-.737.574-1.038.228-.301.505-.55.83-.744a3.236 3.236 0 0 1 1.038-.452 5.45 5.45 0 0 1 1.318-.147c.432 0 .863.025 1.294.074.44.048.883.122 1.331.22l.415-2.882c-.252-.09-.602-.166-1.05-.232a9.315 9.315 0 0 0-1.367-.097ZM150.107 39h6.152c.879 0 1.693-.11 2.442-.33.757-.227 1.408-.561 1.953-1a4.536 4.536 0 0 0 1.282-1.612c.309-.643.459-1.387.451-2.234 0-.48-.069-.936-.207-1.367a3.93 3.93 0 0 0-.586-1.196 4.124 4.124 0 0 0-.94-.891 4.072 4.072 0 0 0-1.355-.61v-.025c.358-.147.671-.31.94-.488.276-.188.525-.403.744-.647.31-.334.546-.716.708-1.148a4.05 4.05 0 0 0 .269-1.416c0-.83-.159-1.546-.476-2.148a4.051 4.051 0 0 0-1.294-1.502c-.553-.39-1.209-.68-1.965-.866a9.7 9.7 0 0 0-2.43-.293h-5.688V39Zm2.954-8.032h3.369c.48.008.908.081 1.282.22.374.13.692.317.952.561.26.244.456.541.586.891.13.342.195.737.195 1.184 0 .423-.081.81-.244 1.16-.154.342-.378.63-.671.867a2.971 2.971 0 0 1-.977.537c-.382.13-.805.195-1.269.195h-3.223v-5.615Zm0-2.234v-5.078h2.771c.505.008.964.069 1.379.183.415.106.761.28 1.038.525.244.195.431.447.562.757.138.3.207.659.207 1.074 0 .39-.073.736-.22 1.037a2.308 2.308 0 0 1-.598.77 2.786 2.786 0 0 1-1.025.537 4.774 4.774 0 0 1-1.319.195h-2.795Zm12.72-8.484v2.43h4.175v13.903h-4.175V39h11.12v-2.417h-4.004V20.25h-7.116Zm13.916 12.024v.256c0 .969.138 1.86.415 2.674a6.208 6.208 0 0 0 1.208 2.124 5.452 5.452 0 0 0 1.929 1.416c.765.341 1.632.512 2.6.512.96 0 1.819-.17 2.576-.512a5.452 5.452 0 0 0 1.929-1.416c.52-.603.919-1.31 1.196-2.124.276-.814.415-1.705.415-2.674v-.256c0-.96-.139-1.847-.415-2.661a6.313 6.313 0 0 0-1.196-2.136 5.57 5.57 0 0 0-1.941-1.416c-.757-.342-1.62-.513-2.588-.513-.969 0-1.831.17-2.588.513a5.478 5.478 0 0 0-1.917 1.416 6.189 6.189 0 0 0-1.208 2.136c-.277.814-.415 1.7-.415 2.66Zm2.917.256v-.256c0-.578.061-1.131.183-1.66.131-.53.326-.993.586-1.392a3.114 3.114 0 0 1 1.001-.952c.407-.236.887-.354 1.441-.354.561 0 1.041.118 1.44.354.407.236.741.553 1.001.952.261.399.456.863.586 1.392.13.529.195 1.082.195 1.66v.256c0 .594-.065 1.156-.195 1.685a4.268 4.268 0 0 1-.574 1.391c-.26.4-.594.717-1.001.953-.407.227-.883.341-1.428.341-.561 0-1.046-.114-1.453-.341a3.072 3.072 0 0 1-1.013-.953 4.511 4.511 0 0 1-.586-1.391 7.478 7.478 0 0 1-.183-1.685Zm12.256-.232v.257c0 .952.122 1.839.366 2.66.253.815.611 1.519 1.075 2.113a4.938 4.938 0 0 0 1.66 1.416c.651.333 1.383.5 2.197.5a5.02 5.02 0 0 0 1.245-.146 3.951 3.951 0 0 0 1.636-.806c.187-.155.366-.322.537-.5v.915c0 .496-.073.94-.22 1.33-.138.391-.338.72-.598.99a2.855 2.855 0 0 1-1.038.634c-.398.147-.858.22-1.379.22-.301 0-.598-.033-.891-.098a3.852 3.852 0 0 1-.867-.28 4.407 4.407 0 0 1-.842-.513 4.55 4.55 0 0 1-.757-.733l-1.379 1.77c.293.391.643.725 1.05 1.001.406.277.834.5 1.281.672a7.548 7.548 0 0 0 2.576.5c.887 0 1.697-.126 2.429-.378a5.319 5.319 0 0 0 1.904-1.074 4.885 4.885 0 0 0 1.209-1.758c.293-.684.439-1.47.439-2.356V25.792h-2.649l-.122 1.33a4.624 4.624 0 0 0-.524-.537 3.89 3.89 0 0 0-1.685-.879 5.188 5.188 0 0 0-1.331-.158c-.822 0-1.562.167-2.221.5a4.867 4.867 0 0 0-1.673 1.38c-.455.594-.809 1.306-1.062 2.136-.244.822-.366 1.733-.366 2.734Zm2.93.257v-.257c0-.594.061-1.151.183-1.672.122-.529.313-.993.574-1.392.252-.398.573-.712.964-.94.391-.227.859-.341 1.404-.341.309 0 .594.036.854.11.261.065.497.158.708.28.236.13.444.293.623.488.187.196.346.416.476.66v5.786c-.13.236-.281.451-.452.647a2.648 2.648 0 0 1-.586.5c-.219.13-.468.232-.744.306-.269.073-.57.11-.904.11-.537 0-1.001-.11-1.391-.33a2.807 2.807 0 0 1-.965-.94 4.014 4.014 0 0 1-.573-1.355 7.75 7.75 0 0 1-.171-1.66Z" fill="#000"/></svg>